<?xml version="1.0" standalone="no"?>
<!DOCTYPE svg PUBLIC "-//W3C//DTD SVG 20010904//EN"
 "http://www.w3.org/TR/2001/REC-SVG-20010904/DTD/svg10.dtd">
<svg version="1.0" xmlns="http://www.w3.org/2000/svg"
 width="300.000000pt" height="300.000000pt" viewBox="0 0 300.000000 300.000000"
 preserveAspectRatio="xMidYMid meet">
<metadata>
Created by potrace 1.10, written by Peter Selinger 2001-2011
</metadata>
<g transform="translate(0.000000,300.000000) scale(0.100000,-0.100000)"
fill="#000000" stroke="none">
<path d="M1051 1763 c17 -32 36 -62 41 -67 4 -6 8 -12 8 -15 0 -10 -115 1
-128 12 -17 14 -47 -15 -39 -37 7 -18 42 -22 52 -6 3 6 33 10 65 10 56 0 59
-2 79 -34 12 -18 21 -36 21 -38 0 -8 -54 4 -67 14 -8 7 -23 6 -43 0 -18 -7
-32 -7 -35 -1 -9 13 -43 11 -48 -3 -11 -34 17 -48 52 -26 15 9 22 8 36 -5 12
-13 21 -14 35 -7 32 17 78 12 90 -10 10 -19 8 -20 -93 -20 -67 0 -107 4 -115
12 -16 16 -45 -12 -36 -35 7 -19 35 -22 50 -7 14 14 231 9 224 -5 -5 -9 -52
-9 -103 1 -19 4 -29 1 -33 -11 -10 -26 11 -41 39 -26 29 15 119 11 125 -6 5
-16 -223 -19 -233 -3 -17 27 -58 3 -48 -27 5 -13 35 -18 45 -7 4 3 61 6 127 7
l121 2 0 -37 c0 -36 2 -38 31 -38 20 0 29 -4 27 -12 -5 -14 -129 -16 -160 -3
-24 10 -48 -1 -48 -20 0 -21 29 -31 51 -17 23 15 159 16 159 2 0 -5 -13 -10
-30 -10 -29 0 -30 -2 -30 -45 0 -25 0 -48 0 -51 0 -3 30 -6 68 -6 l67 0 3 126
3 125 108 191 109 190 -77 0 -76 0 -68 -135 -67 -135 -69 132 -69 133 -77 3
-77 3 33 -58z m156 -88 c30 -55 64 -110 77 -123 l23 -24 26 24 c14 13 47 64
73 113 26 50 51 96 57 103 12 15 57 16 57 1 0 -14 -89 -178 -138 -254 -29 -47
-36 -76 -40 -175 -4 -106 -9 -120 -44 -120 -23 0 -22 19 2 50 27 34 25 66 -5
102 -14 16 -28 42 -32 56 -3 15 -16 45 -28 67 -12 22 -37 66 -54 98 -53 97
-91 171 -91 180 0 4 14 7 32 5 29 -3 36 -11 85 -103z"/>
<path d="M1631 1685 c-33 -74 -61 -138 -61 -142 1 -4 9 -18 19 -30 14 -17 30
-23 59 -23 l40 0 33 85 c18 47 35 83 37 80 5 -5 82 -185 82 -191 0 -1 -52 -2
-116 -3 -112 0 -116 0 -140 -26 -18 -20 -32 -26 -50 -22 -22 4 -28 -1 -44 -37
-9 -22 -34 -75 -53 -116 -20 -41 -35 -74 -34 -75 1 0 36 1 78 3 l76 3 33 80
34 80 135 -3 134 -3 35 -80 34 -80 75 0 c61 0 73 3 69 15 -2 8 -55 125 -118
260 -63 135 -125 271 -138 302 l-25 58 -66 0 -66 0 -62 -135z m218 3 c88 -188
121 -260 121 -264 0 -2 20 -46 45 -97 25 -52 45 -97 45 -101 0 -3 -17 -6 -39
-6 -37 0 -40 2 -66 58 -48 102 -48 102 -201 102 -150 0 -141 4 -189 -94 -25
-51 -35 -62 -59 -64 -47 -6 -50 10 -14 84 26 54 41 73 73 91 72 40 84 42 174
41 105 -2 126 8 117 56 -10 47 -67 164 -84 171 -26 10 -56 -21 -80 -84 -13
-33 -30 -61 -37 -61 -42 0 -57 29 -35 68 5 9 26 53 46 97 46 102 49 105 96
105 l39 0 48 -102z"/>
<path d="M1500 1505 c-16 -19 -9 -45 16 -62 19 -12 24 -11 45 6 21 16 22 22
11 45 -13 29 -52 36 -72 11z m54 -36 c-8 -14 -34 -11 -34 4 0 8 3 17 7 20 9 9
34 -13 27 -24z"/>
<path d="M993 1393 c-18 -7 -16 -42 3 -50 8 -3 20 -1 27 6 14 14 92 14 119 0
16 -9 24 -7 36 5 15 15 15 17 -1 33 -14 15 -21 15 -37 5 -24 -14 -106 -16
-115 -2 -7 11 -13 11 -32 3z"/>
</g>
</svg>
